PathFileType        4      (X/Y/Z)      C:\Users\pc\Desktop\IMUTRC\Sujet_03\Sujet_03_velo_60.trc         
DataRate	CameraRate	NumFrames	NumMarkers	Units	OrigDataRate	OrigDataStartFrame	OrigNumFrames
60.0	60.0	4	64	mm	60.0	465	929
Frame#	Time	pHipOrigin			pRightASI			pLeftASI			pRightCSI			pLeftCSI			pRightIschialTub			pLeftIschialTub			pSacrum			pL5SpinalProcess			pL3SpinalProcess			pT12SpinalProcess			pIJ			pT4SpinalProcess			pT8SpinalProcess			pPX			pC7SpinalProcess			pTopOfHead			pRightAuricularis			pLeftAuricularis			pBackOfHead			pRightAcromion			pLeftAcromion			pRightArmLatEpicondyle			pRightArmMedEpicondyle			pLeftArmLatEpicondyle			pLeftArmMedEpicondyle			pRightUlnarStyloid			pRightRadialStyloid			pRightOlecranon			pLeftUlnarStyloid			pLeftRadialStyloid			pLeftOlecranon			pRightTopOfHand			pRightPinky			pRightBallHand			pLeftTopOfHand			pLeftPinky			pLeftBallHand			pRightGreaterTrochanter			pRightKneeLatEpicondyle			pRightKneeMedEpicondyle			pRightPatella			pLeftGreaterTrochanter			pLeftKneeLatEpicondyle			pLeftKneeMedEpicondyle			pLeftPatella			pRightTibialTub			pRightLatMalleolus			pRightMedMalleolus			pLeftTibialTub			pLeftLatMalleolus			pLeftMedMalleolus			pRightHeelFoot			pRightFirstMetatarsal			pRightFifthMetatarsal			pRightPivotFoot			pRightHeelCenter			pRightToe			pLeftHeelFoot			pLeftFirstMetatarsal			pLeftFifthMetatarsal			pLeftPivotFoot			pLeftHeelCenter			pLeftToe			
		X1	Y1	Z1	X2	Y2	Z2	X3	Y3	Z3	X4	Y4	Z4	X5	Y5	Z5	X6	Y6	Z6	X7	Y7	Z7	X8	Y8	Z8	X9	Y9	Z9	X10	Y10	Z10	X11	Y11	Z11	X12	Y12	Z12	X13	Y13	Z13	X14	Y14	Z14	X15	Y15	Z15	X16	Y16	Z16	X17	Y17	Z17	X18	Y18	Z18	X19	Y19	Z19	X20	Y20	Z20	X21	Y21	Z21	X22	Y22	Z22	X23	Y23	Z23	X24	Y24	Z24	X25	Y25	Z25	X26	Y26	Z26	X27	Y27	Z27	X28	Y28	Z28	X29	Y29	Z29	X30	Y30	Z30	X31	Y31	Z31	X32	Y32	Z32	X33	Y33	Z33	X34	Y34	Z34	X35	Y35	Z35	X36	Y36	Z36	X37	Y37	Z37	X38	Y38	Z38	X39	Y39	Z39	X40	Y40	Z40	X41	Y41	Z41	X42	Y42	Z42	X43	Y43	Z43	X44	Y44	Z44	X45	Y45	Z45	X46	Y46	Z46	X47	Y47	Z47	X48	Y48	Z48	X49	Y49	Z49	X50	Y50	Z50	X51	Y51	Z51	X52	Y52	Z52	X53	Y53	Z53	X54	Y54	Z54	X55	Y55	Z55	X56	Y56	Z56	X57	Y57	Z57	X58	Y58	Z58	X59	Y59	Z59	X60	Y60	Z60	X61	Y61	Z61	X62	Y62	Z62	X63	Y63	Z63	X64	Y64	Z64	
465	7.733	0.0	1250.01021	7.654105012890054E-14	91.12963000000002	1337.07155	133.20734000000007	80.66831999999998	1334.92117	-141.1114399999999	58.69957000000001	1412.27674	109.84375000000009	50.03992999999999	1410.47507	-116.52735999999992	-64.39517	1204.56163	59.51323000000008	-68.75405	1203.63174	-53.701389999999925	-62.5935	1284.1257	2.0922600000000826	-5.98619	1376.53393	-0.5811799999999154	58.46709	1478.06675	-4.591349999999913	119.20081	1569.8938	-8.65963999999991	387.18468	1612.61081	-24.467839999999924	262.81133	1714.14363	-18.365409999999912	189.17534	1653.64239	-13.36722999999991	290.06886	1525.78194	-17.842339999999925	308.60862	1749.71208	-20.74825999999991	561.19112	1845.2587	-59.45510999999992	489.70551	1791.20861	27.548110000000083	463.95906	1789.34882	-114.49321999999991	446.63978	1838.11014	-38.59060999999991	319.88359	1713.50433	195.62648000000007	302.56431	1692.69794	-237.64606999999992	418.39425	1435.34974	155.17609000000004	399.62201	1434.53608	97.52265000000006	395.32125	1416.92621	-204.80918999999994	379.33869	1414.71771	-146.45832999999993	509.17517	1197.70366	112.74967000000004	557.18095	1219.26558	123.90840000000004	382.59332	1430.00285	123.50157000000006	490.40293	1179.68697	-189.58216999999993	538.40871	1202.99244	-196.61448999999993	360.85705	1410.12636	-174.35514999999995	651.10026	1065.42622	218.81572000000003	573.22162	1093.03245	162.44088000000002	549.27685	1161.03096	121.93237000000005	661.73592	1081.35066	-296.2294	576.18566	1089.48723	-245.08522999999997	538.11812	1147.66374	-200.15971999999996	34.347970000000004	1226.53038	162.26653000000007	362.83307	985.33909	96.18593000000003	359.52033	992.08082	16.56374000000004	385.20865	1026.60314	55.90989000000004	10.286949999999988	1232.40034	-169.3569699999999	286.81423	927.33694	-199.11357999999998	297.50801	920.94392	-120.07257999999996	323.42881	956.33801	-158.48882999999998	406.82869	946.86472	49.45875000000003	250.31588	556.48353	87.64252000000002	244.79463	557.87837	21.03886000000002	312.27008	866.95194	-156.28033999999997	-7.671630000000007	598.09629	-95.37226999999996	7.7878599999999985	602.62953	-30.454029999999964	185.39765	485.40475	34.115490000000015	347.89665	453.43963	-15.575729999999993	347.60606	431.29653	63.000330000000005	370.09787	436.75966	21.096970000000006	224.51132	475.98957	31.616400000000013	450.70807	415.48833	15.343249999999996	-81.77257	562.64408	-26.792579999999962	57.07225	461.63433	-6.2186699999999755	31.848869999999998	443.67575	-81.77256999999997	62.18667	437.74767	-45.216099999999976	-50.96982	537.01387	-30.977099999999965	124.95453	383.23263	-53.23643999999999	
466	7.75	0.0	1250.01021	7.654105012890054E-14	91.53646000000002	1336.78096	133.0911000000001	80.26148999999998	1335.15364	-141.1695599999999	59.10640000000001	1411.98615	110.01810000000009	49.80745999999999	1410.70754	-116.35300999999991	-64.27893	1204.4454	59.62946000000008	-68.9284	1203.80609	-53.58514999999992	-62.53538	1284.1257	2.3828500000000825	-5.92808	1376.53393	-0.34870999999991537	58.46709	1478.06675	-4.416999999999913	119.20081	1569.8938	-8.543399999999911	387.06844	1612.9014	-24.932789999999926	262.63698	1714.31798	-18.59787999999991	189.0591	1653.70051	-13.425349999999911	290.06886	1525.9563	-18.132939999999927	308.37615	1749.94455	-21.155089999999912	560.95865	1845.49118	-59.803819999999924	489.41491	1791.4992	27.199400000000082	463.78471	1789.63941	-114.90004999999991	446.46543	1838.34261	-39.05554999999991	319.94171	1713.56244	195.3358900000001	302.27372	1692.8723	-237.8785499999999	418.33613	1435.34974	155.00173000000007	399.50577	1434.47796	97.40641000000005	395.03066	1417.15868	-205.04165999999995	378.98998	1415.0083	-146.63267999999994	508.88457	1197.52931	112.98214000000004	556.94848	1219.09123	124.25711000000004	382.59332	1430.06096	123.32721000000005	489.93798	1179.86132	-189.40780999999996	538.00188	1203.16679	-196.44013999999996	360.56646	1410.35883	-174.52950999999993	650.69343	1065.30998	219.33878000000004	572.8148	1092.8581	162.90583000000004	548.98626	1160.91473	122.28108000000005	661.3291	1081.40878	-295.93881	575.72072	1089.60347	-244.85274999999996	537.71129	1147.77997	-199.98535999999996	33.30183000000001	1224.55436	162.1502900000001	350.97692	969.47277	95.60474000000004	348.24536	976.79569	16.040670000000038	375.32853	1009.92316	55.677410000000044	10.170719999999989	1233.73706	-169.5313299999999	296.11317	937.9726	-203.29810999999998	307.33002	931.17275	-124.37333999999996	331.97221	967.72922	-162.61523999999997	396.59985	931.92829	49.51686000000004	247.29373	538.58307	86.71263000000002	242.29554	539.86167	19.992720000000016	320.52289	877.23889	-160.05802999999997	-4.358880000000006	614.95062	-96.47651999999995	11.274969999999998	619.77445	-31.674519999999962	182.7242	467.27181	33.185600000000015	345.10697	436.00412	-17.319279999999992	345.28132	413.62854	61.198660000000004	367.59878	419.32414	19.179070000000003	221.89599	458.03099	30.454030000000014	448.20898	398.28529	13.018519999999999	-78.75041	580.66078	-27.66434999999996	59.1064	478.48866	-6.334899999999974	33.708659999999995	460.23949	-81.77256999999997	64.04646	454.31141	-45.15797999999998	-48.18014	554.73998	-31.674519999999962	126.29125	399.09895	-52.771489999999986	
467	7.767	0.0	1250.01021	7.654105012890054E-14	92.11764000000001	1336.49037	132.8586300000001	79.79653999999998	1335.328	-141.3439099999999	59.62946000000001	1411.81179	110.01810000000009	49.516859999999994	1410.82378	-116.29488999999991	-64.10458	1204.4454	59.74570000000008	-69.16088	1203.92233	-53.410799999999924	-62.53538	1284.18382	2.6734500000000825	-5.86996	1376.47581	-0.17435999999991533	58.52521	1478.00863	-4.358879999999913	119.14269	1569.8938	-8.65963999999991	387.01032	1613.13388	-25.630209999999927	262.46262	1714.43422	-19.062829999999913	188.94287	1653.81674	-13.715939999999911	290.06886	1526.13065	-18.539759999999927	308.20179	1750.11891	-21.736279999999912	560.72617	1845.72365	-60.501239999999925	489.12432	1791.78979	26.50198000000008	463.61035	1789.81376	-115.59746999999992	446.23295	1838.63321	-39.811089999999915	319.99982	1713.7368	194.81282000000007	301.86689	1693.16289	-238.40160999999992	418.21989	1435.34974	154.82738000000006	399.38954	1434.41984	97.23206000000006	394.68195	1417.39116	-205.39036999999993	378.58316	1415.24078	-146.98138999999995	508.47774	1197.41307	113.21461000000004	556.54165	1218.85876	124.48958000000005	382.41897	1430.06096	123.15286000000006	489.47303	1180.03568	-189.40780999999996	537.47882	1203.28303	-196.38201999999995	360.15963	1410.59131	-174.93633999999994	650.22848	1065.13563	219.74561000000003	572.40797	1092.74186	163.25454000000002	548.57943	1160.74037	122.57167000000004	660.86415	1081.4669	-295.76446	575.25577	1089.71971	-244.73651999999998	537.18823	1147.89621	-199.92723999999998	32.54630000000001	1223.1014	162.1502900000001	338.59771	954.30387	95.43039000000005	336.21485	961.80114	15.808200000000037	364.69286	993.65002	55.444940000000045	9.880129999999989	1234.95755	-169.70567999999992	305.47023	949.18945	-207.25015999999997	317.32638	942.21525	-128.44162999999998	340.4575	979.81784	-166.50916999999998	385.49924	917.45682	49.74934000000003	242.76049	521.55438	85.78274000000002	238.34349	522.71675	19.06283000000002	329.06629	888.39762	-163.54512999999997	0.40682999999999403	631.39813	-97.92947999999996	16.156909999999996	636.45443	-33.12747999999996	178.24908	450.41748	32.371940000000016	340.28314	418.80108	-19.062829999999998	340.74809	396.25114	59.45511	362.83307	401.94675	17.319280000000003	217.30464	441.06042	29.407900000000016	443.38515	380.73354	10.693779999999997	-74.21718	597.98006	-28.88483999999996	62.94221	495.0524	-6.741729999999973	37.48635999999999	476.45451	-82.06315999999997	67.76604	470.58456	-45.390459999999976	-43.82126	571.82678	-32.66252999999996	129.66212	414.90715	-52.59713999999998	
468	7.783	0.0	1250.01021	7.654105012890054E-14	92.75694000000001	1336.25789	132.56803000000008	79.27347999999999	1335.38612	-141.57637999999992	60.26876000000001	1411.63744	109.95998000000009	49.110029999999995	1410.94002	-116.35300999999991	-63.872099999999996	1204.38728	59.97817000000008	-69.39335	1204.03857	-53.17831999999992	-62.47726	1284.24194	2.9640400000000824	-5.81184	1376.47581	8.464070730367084E-14	58.58333	1478.00863	-4.416999999999913	119.14269	1569.8938	-8.892109999999912	386.89408	1613.42447	-26.501979999999925	262.23015	1714.60857	-19.70212999999991	188.82663	1653.87486	-14.12276999999991	290.12697	1526.30501	-19.120949999999926	307.9112	1750.35138	-22.491809999999912	560.4937	1845.95612	-61.37300999999992	488.83373	1792.1385	25.57209000000008	463.37788	1789.98812	-116.52735999999992	445.94236	1838.86568	-40.799109999999914	320.11606	1714.02739	194.17352000000008	301.34382	1693.39536	-239.0409099999999	418.04554	1435.40786	154.65302000000005	399.15706	1434.36173	97.11582000000006	394.217	1417.62363	-205.85531999999995	378.06009	1415.41513	-147.50445999999994	508.07092	1197.23872	113.44709000000005	556.13482	1218.6844	124.72205000000004	382.24461	1430.06096	122.97850000000005	488.89185	1180.15191	-189.46592999999993	536.95575	1203.39927	-196.44013999999996	359.63656	1410.82378	-175.45939999999993	649.6473	1065.01939	220.15244000000004	571.8849	1092.56751	163.60325000000003	548.11448	1160.56602	122.86226000000005	660.3992	1081.58313	-295.70634	574.67458	1089.83594	-244.73651999999998	536.60704	1148.07056	-199.98535999999996	31.96511000000001	1222.05527	162.1502900000001	325.75354	939.83239	95.54662000000005	323.37069	947.09719	15.92444000000004	353.4179	977.84182	55.386820000000036	9.58952999999999	1236.11992	-169.88003999999992	314.71105	961.16184	-210.96973999999997	327.26462	954.0714	-132.27743999999998	348.88466	992.72012	-170.22874999999996	373.58497	903.33405	50.039930000000034	236.7743	505.28123	84.91096000000002	232.82225	506.4436	18.13294000000002	337.84217	900.31189	-166.91599999999997	6.451139999999993	647.26445	-99.55678999999996	22.259339999999998	652.61134	-34.81290999999996	171.85606	434.6674	31.616400000000013	333.36705	401.94675	-20.690139999999996	334.06447	379.22246	57.71156	355.9751	384.85994	15.517610000000001	210.8535	425.01974	28.478010000000012	436.35283	363.00743	8.427169999999997	-68.23098	614.5438	-30.395919999999958	68.57969	511.32555	-7.497269999999974	43.06571999999999	492.32083	-82.76057999999998	73.28728	486.56711	-45.97163999999998	-37.9513	588.27429	-33.99924999999997	135.00901	430.65723	-52.77148999999998	
